<?xml version="1.0" standalone="no"?>
<!DOCTYPE svg PUBLIC "-//W3C//DTD SVG 20010904//EN"
 "http://www.w3.org/TR/2001/REC-SVG-20010904/DTD/svg10.dtd">
<svg version="1.0" xmlns="http://www.w3.org/2000/svg"
 width="548.000000pt" height="153.000000pt" viewBox="0 0 548.000000 153.000000"
 preserveAspectRatio="xMidYMid meet">
<metadata>
Created by potrace 1.16, written by Peter Selinger 2001-2019
</metadata>
<g transform="translate(0.000000,153.000000) scale(0.100000,-0.100000)"
fill="#000000" stroke="none">
<path d="M1607 1163 c-4 -3 -7 -33 -7 -65 l0 -58 -34 0 c-41 0 -65 -23 -46
-45 7 -8 27 -15 45 -15 l33 0 4 -157 c4 -172 13 -206 63 -233 33 -18 118 -18
139 -1 20 17 21 47 2 54 -8 3 -28 1 -45 -6 -44 -16 -77 2 -90 50 -6 21 -11 95
-11 166 l0 127 53 0 c60 0 80 10 75 36 -3 16 -14 20 -66 22 l-62 3 0 64 c0 61
-1 65 -23 65 -13 0 -27 -3 -30 -7z"/>
<path d="M5025 1157 c-3 -7 -4 -138 -3 -292 l3 -280 26 -3 c35 -4 39 12 39
169 0 114 2 129 23 159 31 47 78 72 137 73 54 1 87 -17 124 -67 18 -24 22 -46
26 -179 l5 -152 25 0 25 0 0 160 c0 138 -3 165 -19 199 -23 47 -92 93 -150
101 -53 8 -130 -16 -167 -51 l-29 -28 0 86 c0 48 -3 93 -6 102 -7 19 -53 21
-59 3z"/>
<path d="M382 1138 c-17 -17 -17 -529 0 -546 19 -19 242 -16 309 4 68 20 139
89 163 159 53 157 -23 340 -157 380 -64 19 -297 21 -315 3z m312 -63 c82 -39
130 -156 108 -263 -14 -65 -42 -110 -90 -143 -32 -22 -48 -24 -159 -27 l-123
-4 0 225 c0 123 3 227 8 231 14 16 215 1 256 -19z"/>
<path d="M4576 1143 c-29 -8 -87 -47 -118 -79 -51 -56 -73 -113 -73 -189 1
-126 56 -209 173 -263 46 -21 65 -24 121 -20 95 7 183 56 224 126 l17 31 -47
-27 c-38 -21 -60 -26 -113 -26 -100 1 -175 49 -216 139 -45 96 -20 212 60 283
33 29 34 32 14 31 -13 -1 -32 -4 -42 -6z"/>
<path d="M1115 1021 c-133 -60 -174 -237 -84 -361 36 -50 115 -90 177 -90 45
0 108 27 133 56 13 16 14 15 19 -12 4 -23 10 -29 30 -29 l25 0 3 219 c1 124
-2 224 -7 229 -17 17 -51 -3 -51 -30 l0 -26 -22 20 c-13 11 -33 26 -45 32 -34
17 -133 13 -178 -8z m180 -61 c44 -27 65 -75 65 -149 0 -108 -42 -165 -132
-177 -55 -8 -115 20 -149 68 -33 45 -38 148 -11 198 40 73 156 104 227 60z"/>
<path d="M2070 1029 c-110 -46 -165 -176 -128 -303 25 -84 127 -156 219 -156
41 0 117 33 125 55 9 24 22 18 26 -12 2 -22 8 -28 28 -28 l25 0 3 216 c2 183
0 218 -13 229 -21 18 -45 5 -45 -25 l0 -26 -37 28 c-31 23 -47 28 -107 30 -39
2 -82 -2 -96 -8z m190 -84 c37 -36 54 -93 47 -161 -8 -73 -31 -112 -80 -135
-73 -33 -140 -19 -190 40 -73 87 -51 225 43 274 54 28 141 19 180 -18z"/>
<path d="M2543 1015 c-83 -42 -105 -123 -50 -182 27 -30 64 -41 174 -52 100
-10 128 -21 135 -49 15 -56 -44 -96 -142 -97 -76 0 -119 18 -138 58 -16 33
-55 35 -60 2 -5 -39 33 -82 89 -100 190 -63 373 42 304 175 -22 43 -64 60
-173 72 -117 12 -146 24 -150 60 -6 54 74 95 160 82 55 -9 78 -20 105 -53 17
-21 25 -24 39 -15 28 16 27 29 -3 64 -37 45 -79 60 -166 60 -58 0 -83 -5 -124
-25z"/>
<path d="M3100 1029 c-44 -18 -90 -59 -112 -102 -17 -32 -23 -59 -23 -117 0
-91 27 -148 93 -195 38 -26 54 -30 121 -33 68 -4 84 -1 129 22 37 19 52 32 52
46 0 28 -23 34 -58 16 -16 -8 -49 -22 -72 -30 -37 -13 -47 -13 -87 2 -50 19
-113 81 -113 112 0 19 7 20 185 20 172 0 185 1 195 19 36 68 -25 192 -115 232
-44 20 -153 25 -195 8z m146 -54 c48 -9 114 -87 114 -134 0 -20 -5 -21 -164
-21 -104 0 -167 4 -171 10 -10 16 36 101 66 123 28 20 85 37 109 32 8 -2 29
-6 46 -10z"/>
<path d="M3656 1021 c-61 -25 -93 -54 -117 -106 -24 -52 -24 -102 1 -185 16
-53 29 -76 59 -103 79 -72 194 -76 262 -11 l26 25 6 -30 c5 -24 12 -31 31 -31
13 0 27 7 30 16 3 9 6 107 6 219 0 167 -3 205 -15 215 -20 17 -43 6 -51 -25
l-7 -26 -28 27 c-39 37 -130 44 -203 15z m175 -64 c51 -34 60 -60 57 -159 -3
-76 -6 -90 -28 -113 -51 -56 -117 -68 -186 -34 -124 59 -123 261 1 315 48 21
117 17 156 -9z"/>
<path d="M4054 1027 c-2 -7 -3 -109 -2 -227 3 -201 4 -215 22 -218 10 -2 22 2
27 10 5 7 9 71 9 142 0 110 3 136 20 172 21 43 67 74 108 74 29 0 48 26 32 45
-25 30 -113 8 -144 -36 l-16 -23 0 25 c0 40 -43 68 -56 36z"/>
<path d="M1260 290 l0 -110 55 0 c78 0 113 37 85 91 -6 10 -18 19 -27 19 -14
0 -13 4 5 20 47 44 7 90 -77 90 l-41 0 0 -110z"/>
<path d="M1813 385 c-31 -22 -47 -85 -33 -135 13 -47 42 -70 90 -70 67 0 106
75 80 154 -19 58 -90 84 -137 51z m92 -30 c40 -39 30 -136 -15 -150 -53 -17
-90 20 -90 91 0 38 36 84 65 84 9 0 27 -11 40 -25z"/>
<path d="M2227 393 c-4 -3 -7 -53 -7 -110 l0 -103 49 0 c67 0 101 28 108 91 7
63 -15 105 -65 118 -43 12 -76 14 -85 4z m106 -41 c11 -10 17 -30 17 -60 0
-55 -29 -92 -72 -92 l-28 0 0 91 0 91 33 -7 c17 -4 40 -14 50 -23z"/>
<path d="M2850 290 c0 -67 4 -110 10 -110 6 0 10 20 10 45 l0 45 38 0 c49 0
82 23 82 58 0 48 -33 72 -99 72 l-41 0 0 -110z"/>
<path d="M3581 315 c-17 -47 -33 -96 -37 -110 -10 -38 13 -30 31 11 13 33 17
35 52 32 33 -3 39 -7 47 -35 5 -18 15 -33 24 -33 8 0 12 6 10 13 -3 6 -20 56
-37 110 -20 57 -38 97 -46 97 -7 0 -26 -37 -44 -85z"/>
<path d="M4019 371 c-24 -24 -29 -38 -29 -76 0 -51 20 -99 45 -109 27 -10 79
-6 96 7 26 20 39 53 39 102 0 59 -40 105 -90 105 -22 0 -41 -9 -61 -29z m94
-5 c37 -28 40 -111 6 -152 -16 -20 -63 -18 -81 4 -23 26 -30 70 -18 108 17 51
56 68 93 40z"/>
<path d="M4220 290 c0 -95 2 -110 16 -110 15 0 16 11 12 90 -3 50 -4 90 -2 90
1 0 24 -40 51 -90 33 -61 54 -90 66 -90 16 0 17 10 15 107 -2 72 -7 108 -15
110 -9 3 -13 -20 -15 -83 l-3 -87 -48 87 c-67 118 -77 114 -77 -24z"/>
</g>
</svg>
